<?xml version="1.0" standalone="no"?>
<!DOCTYPE svg PUBLIC "-//W3C//DTD SVG 20010904//EN"
 "http://www.w3.org/TR/2001/REC-SVG-20010904/DTD/svg10.dtd">
<svg version="1.0" xmlns="http://www.w3.org/2000/svg"
 width="815.000000pt" height="815.000000pt" viewBox="0 0 815.000000 815.000000"
 preserveAspectRatio="xMidYMid meet">
<metadata>
Created by potrace 1.14, written by Peter Selinger 2001-2017
</metadata>
<g transform="translate(0.000000,815.000000) scale(0.100000,-0.100000)"
fill="#000000" stroke="none">
<path d="M3311 7838 c-69 -21 -123 -67 -157 -133 -12 -22 -51 -134 -88 -250
-37 -115 -72 -223 -79 -240 -6 -16 -12 -34 -13 -40 -1 -5 -16 -53 -34 -105
-17 -52 -33 -102 -35 -110 -2 -8 -21 -69 -43 -135 -22 -66 -104 -316 -182
-555 -78 -239 -147 -448 -154 -465 -7 -16 -19 -46 -26 -65 -24 -61 -70 -109
-139 -143 l-66 -32 -910 -2 c-1121 -2 -1167 -3 -1220 -28 -50 -24 -121 -96
-141 -144 -54 -126 -6 -259 128 -357 29 -21 58 -42 63 -47 6 -5 123 -90 262
-191 138 -100 262 -190 275 -199 13 -10 221 -161 463 -337 242 -176 463 -340
492 -365 71 -62 106 -135 106 -223 -1 -57 -13 -104 -82 -312 -45 -135 -101
-306 -125 -380 -25 -74 -91 -277 -147 -450 -56 -173 -104 -319 -105 -325 -1
-5 -16 -50 -32 -100 -109 -333 -143 -448 -144 -486 -4 -178 162 -315 330 -270
37 10 183 110 561 385 46 34 100 73 120 87 20 14 153 110 296 214 242 175 482
349 600 434 27 20 63 46 80 58 16 13 58 37 92 54 104 51 190 45 295 -23 35
-22 65 -43 68 -47 3 -3 13 -10 22 -16 13 -8 958 -689 1243 -897 356 -260 345
-253 441 -252 58 0 79 5 115 26 83 49 135 126 145 215 6 44 -6 86 -106 394
-61 189 -120 369 -130 399 -10 30 -68 208 -128 395 -61 187 -145 446 -188 575
-72 217 -78 242 -78 320 -1 69 3 93 21 126 43 82 26 68 1168 896 165 119 305
221 310 225 6 5 35 26 65 47 152 107 222 180 238 245 32 131 -40 278 -161 332
l-52 23 -1035 1 -1035 0 -57 28 c-31 15 -71 42 -88 60 -58 59 -68 84 -238 607
-312 958 -460 1409 -474 1440 -37 80 -105 132 -194 148 -41 7 -64 5 -113 -10z"/>
<path d="M6400 7546 c-131 -38 -225 -118 -287 -243 -32 -65 -37 -84 -41 -171
-5 -106 14 -185 62 -260 93 -146 263 -227 416 -197 68 13 87 19 129 43 155 85
246 233 250 407 4 175 -86 324 -242 400 -95 46 -179 52 -287 21z"/>
<path d="M7853 4918 c-122 -20 -195 -102 -217 -241 -7 -42 20 -118 60 -170
150 -192 448 -81 448 168 0 72 -25 125 -82 177 -67 61 -129 80 -209 66z"/>
<path d="M3640 1192 c-170 -22 -352 -180 -386 -334 -3 -13 -8 -34 -11 -48 -9
-42 -7 -122 5 -178 66 -295 411 -430 650 -255 213 156 266 443 118 640 -91
121 -245 193 -376 175z"/>
</g>
</svg>
